<svg width="481" height="800" viewBox="0 0 481 800" fill="none" xmlns="http://www.w3.org/2000/svg">
    <path
        d="M128.143 843.249C128.143 843.249 105.333 793.125 119.976 774.618C134.379 756.414 184.274 774.233 196.207 754.667C209.163 733.422 161.412 699.182 169.103 675.263C176.275 652.962 226.133 640.211 226.133 640.211"
        stroke="#02BDEE" stroke-width="2" />
    <g filter="url(#filter0_d_1015_3322)">
        <path
            d="M306.387 664.805C306.387 664.805 305.735 692.643 314.652 706.764C323.424 720.654 340.247 717.718 348.266 732.056C356.973 747.624 343.754 761.282 350.819 777.66C357.406 792.931 379.341 809.285 379.341 809.285"
            stroke="#02BDEE" stroke-width="2" />
    </g>
    <g filter="url(#filter1_d_1015_3322)">
        <path
            d="M404.904 482.828C404.904 482.828 416.751 508.028 431.036 516.68C445.087 525.191 458.829 515.052 472.407 524.3C487.149 534.341 481.421 552.464 495.057 563.964C507.77 574.686 534.699 579.523 534.699 579.523"
            stroke="#02BDEE" stroke-width="2" />
    </g>
    <g filter="url(#filter2_d_1015_3322)">
        <path
            d="M380.267 385.059C380.267 385.059 403.464 400.462 420.165 400.453C436.593 400.444 443.085 384.649 459.49 385.516C477.303 386.457 481.802 404.923 499.424 407.686C515.855 410.262 541.389 400.434 541.389 400.434"
            stroke="#02BDEE" stroke-width="2" />
    </g>
    <path
        d="M377.677 329.089C377.677 329.089 373.639 285.891 389.317 275.897C404.738 266.066 437.275 292.211 451.209 280.729C466.337 268.261 439.635 230.446 451.536 214.629C462.632 199.881 503.035 203.264 503.035 203.264"
        stroke="#02BDEE" stroke-width="2" />
    <path
        d="M295.745 171.049C295.745 171.049 272.934 120.926 287.577 102.419C301.981 84.2143 351.876 102.034 363.808 82.4674C376.765 61.2225 329.013 26.9826 336.705 3.06378C343.876 -19.2374 393.735 -31.9879 393.735 -31.9879"
        stroke="#02BDEE" stroke-width="2" />
    <g filter="url(#filter3_d_1015_3322)">
        <path
            d="M128.104 -20.9756C128.104 -20.9756 123.564 6.49739 130.418 21.7268C137.161 36.7074 154.229 36.1541 160.163 51.4728C166.607 68.1059 151.607 79.7798 156.311 96.9858C160.697 113.028 180.129 132.29 180.129 132.29"
            stroke="#02BDEE" stroke-width="2" />
    </g>
    <g filter="url(#filter4_d_1015_3322)">
        <path
            d="M30.4458 209.161C30.4458 209.161 33.5986 214.478 36.9388 216.087C40.2244 217.67 43.0458 215.138 46.2424 216.893C49.7133 218.799 48.832 222.926 52.0892 225.178C55.126 227.277 61.1795 227.775 61.1795 227.775"
            stroke="#02BDEE" stroke-width="2" />
    </g>
    <path
        d="M31.2216 550.146C31.2216 550.146 32.1333 540.813 35.8694 539.334C39.5445 537.879 45.3789 544.76 48.8059 542.893C52.5269 540.867 48.4084 531.749 51.5814 528.879C54.5399 526.204 62.9754 528.576 62.9754 528.576"
        stroke="#02BDEE" stroke-width="2" />
    <defs>
        <filter id="filter0_d_1015_3322" x="276.377" y="642.782" width="132.562" height="203.305"
            filterUnits="userSpaceOnUse" color-interpolation-filters="sRGB">
            <feFlood flood-opacity="0" result="BackgroundImageFix" />
            <feColorMatrix in="SourceAlpha" type="matrix"
                values="0 0 0 0 0 0 0 0 0 0 0 0 0 0 0 0 0 0 127 0" result="hardAlpha" />
            <feOffset dy="7" />
            <feGaussianBlur stdDeviation="14.5" />
            <feColorMatrix type="matrix"
                values="0 0 0 0 0.392157 0 0 0 0 0.392157 0 0 0 0 0.435294 0 0 0 0.2 0" />
            <feBlend mode="normal" in2="BackgroundImageFix" result="effect1_dropShadow_1015_3322" />
            <feBlend mode="normal" in="SourceGraphic" in2="effect1_dropShadow_1015_3322"
                result="shape" />
        </filter>
        <filter id="filter1_d_1015_3322" x="374.998" y="460.403" width="188.877" height="156.104"
            filterUnits="userSpaceOnUse" color-interpolation-filters="sRGB">
            <feFlood flood-opacity="0" result="BackgroundImageFix" />
            <feColorMatrix in="SourceAlpha" type="matrix"
                values="0 0 0 0 0 0 0 0 0 0 0 0 0 0 0 0 0 0 127 0" result="hardAlpha" />
            <feOffset dy="7" />
            <feGaussianBlur stdDeviation="14.5" />
            <feColorMatrix type="matrix"
                values="0 0 0 0 0.392157 0 0 0 0 0.392157 0 0 0 0 0.435294 0 0 0 0.2 0" />
            <feBlend mode="normal" in2="BackgroundImageFix" result="effect1_dropShadow_1015_3322" />
            <feBlend mode="normal" in="SourceGraphic" in2="effect1_dropShadow_1015_3322"
                result="shape" />
        </filter>
        <filter id="filter2_d_1015_3322" x="350.715" y="362.226" width="220.033" height="82.8906"
            filterUnits="userSpaceOnUse" color-interpolation-filters="sRGB">
            <feFlood flood-opacity="0" result="BackgroundImageFix" />
            <feColorMatrix in="SourceAlpha" type="matrix"
                values="0 0 0 0 0 0 0 0 0 0 0 0 0 0 0 0 0 0 127 0" result="hardAlpha" />
            <feOffset dy="7" />
            <feGaussianBlur stdDeviation="14.5" />
            <feColorMatrix type="matrix"
                values="0 0 0 0 0.392157 0 0 0 0 0.392157 0 0 0 0 0.435294 0 0 0 0.2 0" />
            <feBlend mode="normal" in2="BackgroundImageFix" result="effect1_dropShadow_1015_3322" />
            <feBlend mode="normal" in="SourceGraphic" in2="effect1_dropShadow_1015_3322"
                result="shape" />
        </filter>
        <filter id="filter3_d_1015_3322" x="96.6289" y="-43.1377" width="113.203" height="212.138"
            filterUnits="userSpaceOnUse" color-interpolation-filters="sRGB">
            <feFlood flood-opacity="0" result="BackgroundImageFix" />
            <feColorMatrix in="SourceAlpha" type="matrix"
                values="0 0 0 0 0 0 0 0 0 0 0 0 0 0 0 0 0 0 127 0" result="hardAlpha" />
            <feOffset dy="7" />
            <feGaussianBlur stdDeviation="14.5" />
            <feColorMatrix type="matrix"
                values="0 0 0 0 0.392157 0 0 0 0 0.392157 0 0 0 0 0.435294 0 0 0 0.2 0" />
            <feBlend mode="normal" in2="BackgroundImageFix" result="effect1_dropShadow_1015_3322" />
            <feBlend mode="normal" in="SourceGraphic" in2="effect1_dropShadow_1015_3322"
                result="shape" />
        </filter>
        <filter id="filter4_d_1015_3322" x="0.585938" y="186.651" width="89.6758" height="78.1201"
            filterUnits="userSpaceOnUse" color-interpolation-filters="sRGB">
            <feFlood flood-opacity="0" result="BackgroundImageFix" />
            <feColorMatrix in="SourceAlpha" type="matrix"
                values="0 0 0 0 0 0 0 0 0 0 0 0 0 0 0 0 0 0 127 0" result="hardAlpha" />
            <feOffset dy="7" />
            <feGaussianBlur stdDeviation="14.5" />
            <feColorMatrix type="matrix"
                values="0 0 0 0 0.392157 0 0 0 0 0.392157 0 0 0 0 0.435294 0 0 0 0.2 0" />
            <feBlend mode="normal" in2="BackgroundImageFix" result="effect1_dropShadow_1015_3322" />
            <feBlend mode="normal" in="SourceGraphic" in2="effect1_dropShadow_1015_3322"
                result="shape" />
        </filter>
    </defs>
</svg>