<svg width="1440" height="1024" viewBox="0 0 1440 1024" fill="none" xmlns="http://www.w3.org/2000/svg">
<path d="M-541.794 -14.9981C-162.816 85.2309 -126.582 150.208 -433.092 179.932C-784.087 221.557 -747.853 286.534 -324.39 374.863C95.0591 455.995 131.293 520.972 -215.689 569.793C-429.102 579.45 -392.868 644.427 -106.987 764.724C189.428 903.911 225.662 968.887 1.71507 959.654C-379.985 979.219 -343.751 1044.2 110.417 1154.58" stroke="#FFEABE" stroke-width="9.71537"/>
<path d="M-401.34 -16.5965C-32.5383 77.8492 5.05319 147.604 -294.193 175.546C-636.833 215.002 -602.237 283.154 -187.046 367.688C219.744 445.059 256.292 514.82 -82.3913 561.37C-293.272 570.955 -255.755 637.343 25.3454 754.57C313.72 888.696 345.633 951.521 134.032 945.681C-226.161 967.352 -196.153 1033 241.541 1136.26" stroke="#FCFCF4" stroke-width="9.71537"/>
<path d="M-260.895 -18.1914C97.7309 70.4711 136.68 145.005 -155.303 171.162C-489.587 208.449 -456.629 279.777 -49.711 360.516C344.419 434.125 381.283 508.672 50.897 552.95C-157.451 562.463 -118.65 630.263 157.669 744.419C438.003 873.485 465.595 934.159 266.34 931.712C-72.345 955.488 -48.5639 1021.81 372.656 1117.93" stroke="#F9F9EA" stroke-width="9.71537"/>
<path d="M-120.455 -19.7826C227.995 63.0966 268.302 142.409 -16.4177 166.782C-342.346 201.901 -311.026 276.405 87.6192 353.347C469.09 423.196 506.268 502.527 184.18 544.533C-21.6356 553.975 18.4494 623.186 289.987 734.271C562.281 858.277 585.552 916.8 398.643 917.746C81.4655 943.628 99.0202 1010.63 503.767 1099.61" stroke="#F6F6DF" stroke-width="9.71537"/>
<path d="M19.9757 -21.3701C358.249 55.7258 399.913 139.816 122.458 162.406C-195.116 195.356 -165.433 273.035 224.939 346.183C593.75 412.27 631.243 496.386 317.454 536.12C114.17 545.491 155.539 616.113 422.295 724.128C686.549 843.073 705.499 899.444 530.936 903.783C235.266 931.772 246.594 999.444 634.867 1081.29" stroke="#F3F3D5" stroke-width="9.71537"/>
<path d="M160.398 -22.9535C488.495 48.3591 531.517 137.228 261.325 158.035C-47.8931 188.815 -19.8487 269.67 362.252 339.023C718.403 401.349 756.211 490.249 450.719 527.712C249.968 537.01 292.62 609.045 554.595 713.988C810.809 827.873 825.438 882.093 663.221 889.825C389.059 919.919 394.161 988.265 765.959 1062.97" stroke="#F0EFCA" stroke-width="9.71537"/>
<path d="M300.809 -24.5318C618.73 40.9975 663.109 134.645 400.181 153.668C99.318 182.28 125.725 266.31 499.552 331.867C843.044 390.432 881.167 484.117 583.973 519.308C385.754 528.535 429.691 601.981 686.884 703.854C935.057 812.678 945.365 864.747 795.495 875.872C542.84 908.072 541.715 977.092 897.04 1044.67" stroke="#EDECC0" stroke-width="9.71537"/>
<path d="M441.209 -26.1052C748.954 33.6409 794.691 132.067 539.026 149.306C246.519 175.749 271.287 262.955 636.843 324.717C967.675 379.521 1006.11 477.99 717.216 510.909C521.531 520.065 566.75 594.922 819.162 693.724C1059.29 797.489 1065.28 847.406 927.758 861.924C696.611 896.23 689.26 965.923 1028.11 1026.36" stroke="#E9E9B5" stroke-width="9.71537"/>
<path d="M581.599 -27.6727C879.168 26.2901 926.262 129.494 677.861 144.95C393.709 169.224 416.84 259.606 774.123 317.572C1092.29 368.615 1131.05 471.869 850.449 502.517C657.296 511.601 703.799 587.87 951.43 683.601C1183.52 782.305 1185.19 830.071 1060.01 847.981C850.371 884.394 836.793 954.761 1159.17 1008.06" stroke="#E6E6AB" stroke-width="9.71537"/>
<path d="M721.973 -29.2342C1009.37 18.9453 1057.82 126.928 816.68 140.6C540.883 162.705 562.376 256.263 911.387 310.434C1216.9 357.715 1255.97 465.754 983.666 494.13C793.046 503.142 840.833 580.823 1083.68 673.483C1307.73 767.127 1305.08 812.741 1192.25 834.045C1004.12 872.564 984.311 943.604 1290.21 989.77" stroke="#E3E3A0" stroke-width="9.71537"/>
<path d="M862.334 -30.7888C1139.55 11.6074 1189.36 124.368 955.486 136.257C688.045 156.194 707.9 252.927 1048.64 303.302C1341.49 346.823 1380.87 459.646 1116.87 485.75C928.783 494.691 977.854 573.783 1215.92 663.372C1431.93 751.956 1424.96 795.419 1324.47 820.115C1157.85 860.74 1131.82 932.454 1421.25 971.484" stroke="#E0E096" stroke-width="9.71537"/>
<path d="M1002.68 -32.3354C1269.72 4.27755 1320.89 121.817 1094.28 131.922C835.19 149.69 853.407 249.599 1185.87 296.179C1466.07 335.938 1505.76 453.545 1250.06 477.378C1064.5 486.247 1114.86 566.751 1348.14 653.27C1556.11 736.793 1544.82 778.105 1456.68 806.194C1311.56 848.925 1279.3 921.313 1552.26 953.207" stroke="#DDDD8B" stroke-width="9.71537"/>
<path d="M1140.56 -32.7226C1397.43 -1.89299 1449.95 120.425 1230.61 128.746C979.876 144.345 996.455 247.43 1320.65 290.214C1588.18 326.212 1628.19 448.605 1380.79 470.165C1197.76 478.963 1249.4 560.878 1477.91 644.326C1677.84 722.789 1662.22 761.949 1586.43 793.432C1462.82 838.269 1424.33 911.33 1680.82 936.089" stroke="#DADA81" stroke-width="9.71537"/>
<path d="M1278.23 -33.0042C1524.92 -7.95778 1578.8 119.138 1366.72 125.676C1124.34 139.106 1139.28 245.366 1455.2 284.356C1710.08 316.593 1750.4 443.77 1511.29 463.059C1330.8 471.785 1383.73 555.111 1607.45 635.489C1799.34 708.891 1779.4 745.9 1715.95 780.776C1613.85 827.718 1569.14 901.454 1809.15 919.076" stroke="#D7D776" stroke-width="9.71537"/>
<path d="M1415.89 -33.2847C1652.4 -14.0216 1707.64 117.853 1502.82 122.607C1268.8 133.869 1282.1 243.304 1589.75 278.498C1831.97 306.974 1872.61 438.936 1641.8 455.953C1463.84 464.608 1518.04 549.345 1736.99 626.652C1920.84 694.994 1896.58 729.852 1845.48 768.12C1764.88 817.169 1713.95 891.578 1937.48 902.064" stroke="#D4D36C" stroke-width="9.71537"/>
<path d="M1553.55 -33.5648C1779.89 -20.085 1836.48 116.568 1638.93 119.538C1413.26 128.631 1424.93 241.242 1724.3 272.641C1953.86 297.356 1994.81 434.102 1772.3 448.847C1596.88 457.431 1652.37 543.58 1866.53 617.816C2042.34 681.098 2013.76 713.804 1975 755.465C1915.91 806.62 1858.75 881.703 2065.81 885.053" stroke="#D1D061" stroke-width="9.71537"/>
<path d="M-401.34 -16.5965C-32.5383 77.8492 5.05319 147.604 -294.193 175.546C-636.833 215.002 -602.237 283.154 -187.046 367.688C219.744 445.059 256.292 514.82 -82.3913 561.37C-293.272 570.955 -255.755 637.343 25.3454 754.57C313.72 888.696 345.633 951.521 134.032 945.681C-226.161 967.352 -196.153 1033 241.541 1136.26" stroke="#FFEABE" stroke-width="9.71537"/>
<path d="M-260.895 -18.1914C97.7309 70.4711 136.68 145.005 -155.303 171.162C-489.587 208.449 -456.629 279.777 -49.711 360.516C344.419 434.125 381.283 508.672 50.897 552.95C-157.451 562.463 -118.65 630.263 157.669 744.419C438.003 873.485 465.595 934.159 266.34 931.712C-72.345 955.488 -48.5639 1021.81 372.656 1117.93" stroke="#FFEABE" stroke-width="9.71537"/>
<path d="M-120.455 -19.7826C227.995 63.0966 268.302 142.409 -16.4177 166.782C-342.346 201.901 -311.026 276.405 87.6192 353.347C469.09 423.196 506.268 502.527 184.18 544.533C-21.6356 553.975 18.4494 623.186 289.987 734.271C562.281 858.277 585.552 916.8 398.643 917.746C81.4655 943.628 99.0202 1010.63 503.767 1099.61" stroke="#FFEABE" stroke-width="9.71537"/>
<path d="M19.9757 -21.3701C358.249 55.7258 399.913 139.816 122.458 162.406C-195.116 195.356 -165.433 273.035 224.939 346.183C593.75 412.27 631.243 496.386 317.454 536.12C114.17 545.491 155.539 616.113 422.295 724.128C686.549 843.073 705.499 899.444 530.936 903.783C235.266 931.772 246.594 999.444 634.867 1081.29" stroke="#FFEABE" stroke-width="9.71537"/>
<path d="M160.398 -22.9535C488.495 48.3591 531.517 137.228 261.325 158.035C-47.8931 188.815 -19.8487 269.67 362.252 339.023C718.403 401.349 756.211 490.249 450.719 527.712C249.968 537.01 292.62 609.045 554.595 713.988C810.809 827.873 825.438 882.093 663.221 889.825C389.059 919.919 394.161 988.265 765.959 1062.97" stroke="#FFEABE" stroke-width="9.71537"/>
<path d="M300.809 -24.5318C618.73 40.9975 663.109 134.645 400.181 153.668C99.318 182.28 125.725 266.31 499.552 331.867C843.044 390.432 881.167 484.117 583.973 519.308C385.754 528.535 429.691 601.981 686.884 703.854C935.057 812.678 945.365 864.747 795.495 875.872C542.84 908.072 541.715 977.092 897.04 1044.67" stroke="#FFEABE" stroke-width="9.71537"/>
<path d="M441.209 -26.1052C748.954 33.6409 794.691 132.067 539.026 149.306C246.519 175.749 271.287 262.955 636.843 324.717C967.675 379.521 1006.11 477.99 717.216 510.909C521.531 520.065 566.75 594.922 819.162 693.724C1059.29 797.489 1065.28 847.406 927.758 861.924C696.611 896.23 689.26 965.923 1028.11 1026.36" stroke="#FFEABE" stroke-width="9.71537"/>
<path d="M581.599 -27.6727C879.168 26.2901 926.262 129.494 677.861 144.95C393.709 169.224 416.84 259.606 774.123 317.572C1092.29 368.615 1131.05 471.869 850.449 502.517C657.296 511.601 703.799 587.87 951.43 683.601C1183.52 782.305 1185.19 830.071 1060.01 847.981C850.371 884.394 836.793 954.761 1159.17 1008.06" stroke="#FFEABE" stroke-width="9.71537"/>
<path d="M721.973 -29.2342C1009.37 18.9453 1057.82 126.928 816.68 140.6C540.883 162.705 562.376 256.263 911.387 310.434C1216.9 357.715 1255.97 465.754 983.666 494.13C793.046 503.142 840.833 580.823 1083.68 673.483C1307.73 767.127 1305.08 812.741 1192.25 834.045C1004.12 872.564 984.311 943.604 1290.21 989.77" stroke="#FFEABE" stroke-width="9.71537"/>
<path d="M862.334 -30.7888C1139.55 11.6074 1189.36 124.368 955.486 136.257C688.045 156.194 707.9 252.927 1048.64 303.302C1341.49 346.823 1380.87 459.646 1116.87 485.75C928.783 494.691 977.854 573.783 1215.92 663.372C1431.93 751.956 1424.96 795.419 1324.47 820.115C1157.85 860.74 1131.82 932.454 1421.25 971.484" stroke="#FFEABE" stroke-width="9.71537"/>
<path d="M1002.68 -32.3354C1269.72 4.27755 1320.89 121.817 1094.28 131.922C835.19 149.69 853.407 249.599 1185.87 296.179C1466.07 335.938 1505.76 453.545 1250.06 477.378C1064.5 486.247 1114.86 566.751 1348.14 653.27C1556.11 736.793 1544.82 778.105 1456.68 806.194C1311.56 848.925 1279.3 921.313 1552.26 953.207" stroke="#FFEABE" stroke-width="9.71537"/>
<path d="M1140.56 -32.7226C1397.43 -1.89299 1449.95 120.425 1230.61 128.746C979.876 144.345 996.455 247.43 1320.65 290.214C1588.18 326.212 1628.19 448.605 1380.79 470.165C1197.76 478.963 1249.4 560.878 1477.91 644.326C1677.84 722.789 1662.22 761.949 1586.43 793.432C1462.82 838.269 1424.33 911.33 1680.82 936.089" stroke="#FFEABE" stroke-width="9.71537"/>
<path d="M1278.23 -33.0042C1524.92 -7.95778 1578.8 119.138 1366.72 125.676C1124.34 139.106 1139.28 245.366 1455.2 284.356C1710.08 316.593 1750.4 443.77 1511.29 463.059C1330.8 471.785 1383.73 555.111 1607.45 635.489C1799.34 708.891 1779.4 745.9 1715.95 780.776C1613.85 827.718 1569.14 901.454 1809.15 919.076" stroke="#FFEABE" stroke-width="9.71537"/>
<path d="M1415.89 -33.2847C1652.4 -14.0216 1707.64 117.853 1502.82 122.607C1268.8 133.869 1282.1 243.304 1589.75 278.498C1831.97 306.974 1872.61 438.936 1641.8 455.953C1463.84 464.608 1518.04 549.345 1736.99 626.652C1920.84 694.994 1896.58 729.852 1845.48 768.12C1764.88 817.169 1713.95 891.578 1937.48 902.064" stroke="#FFEABE" stroke-width="9.71537"/>
<path d="M1553.55 -33.5648C1779.89 -20.085 1836.48 116.568 1638.93 119.538C1413.26 128.631 1424.93 241.242 1724.3 272.641C1953.86 297.356 1994.81 434.102 1772.3 448.847C1596.88 457.431 1652.37 543.58 1866.53 617.816C2042.34 681.098 2013.76 713.804 1975 755.465C1915.91 806.62 1858.75 881.703 2065.81 885.053" stroke="#FFEABE" stroke-width="9.71537"/>
</svg>
