<svg width="1440" height="1024" viewBox="0 0 1440 1024" fill="none" xmlns="http://www.w3.org/2000/svg">
<path d="M1589.65 -352.235C1533.25 -333.04 1422.02 -249.437 1428.27 -68.5823C1436.09 157.487 1606.71 298.958 1649.37 512.23C1680.85 669.641 1676.38 1063.9 1484.44 1229.54" stroke="#BCA4C3" stroke-width="7.78561"/>
<path d="M1508.43 -313.735C1452.03 -294.541 1340.8 -210.938 1347.05 -30.0825C1354.87 195.986 1525.49 337.457 1568.14 550.73C1599.63 708.141 1595.16 1102.4 1403.21 1268.04" stroke="#BCA4C3" stroke-width="7.78561"/>
<path d="M1426.11 -277.637C1369.71 -258.442 1258.47 -174.839 1264.73 6.01592C1272.55 232.085 1443.17 373.556 1485.82 586.828C1517.31 744.239 1512.84 1138.49 1320.89 1304.14" stroke="#BCA4C3" stroke-width="7.78561"/>
<path d="M1342.66 -244.213C1286.27 -225.018 1175.03 -141.415 1181.29 39.4399C1189.11 265.509 1359.73 406.98 1402.38 620.252C1433.86 777.663 1429.4 1171.92 1237.45 1337.56" stroke="#BCA4C3" stroke-width="7.78561"/>
<path d="M1258.07 -213.811C1201.68 -194.616 1090.44 -111.013 1096.7 69.8418C1104.52 295.911 1275.14 437.382 1317.79 650.654C1349.27 808.065 1344.81 1202.32 1152.86 1367.96" stroke="#BCA4C3" stroke-width="7.78561"/>
<path d="M1172.32 -186.873C1115.92 -167.678 1004.69 -84.0755 1010.94 96.7797C1018.76 322.849 1189.38 464.319 1232.04 677.592C1263.52 835.003 1259.05 1229.26 1067.1 1394.9" stroke="#BCA4C3" stroke-width="7.78561"/>
<path d="M1085.4 -163.957C1029 -144.762 917.77 -61.1596 924.026 119.696C931.846 345.765 1102.46 487.235 1145.12 700.508C1176.6 857.919 1172.13 1252.17 980.188 1417.81" stroke="#BCA4C3" stroke-width="7.78561"/>
<path d="M997.373 -145.773C940.974 -126.578 829.741 -42.9755 835.997 137.88C843.817 363.949 1014.43 505.419 1057.09 718.692C1088.57 876.103 1084.1 1270.36 892.159 1436" stroke="#BCA4C3" stroke-width="7.78561"/>
<path d="M908.367 -133.221C851.968 -114.026 740.734 -30.4233 746.99 150.432C754.81 376.501 925.429 517.972 968.083 731.244C999.565 888.655 995.098 1282.91 803.152 1448.55" stroke="#BCA4C3" stroke-width="7.78561"/>
<path d="M818.667 -127.429C762.268 -108.235 651.034 -24.6317 657.29 156.223C665.11 382.292 835.728 523.763 878.383 737.036C909.865 894.447 905.397 1288.7 713.452 1454.34" stroke="#BCA4C3" stroke-width="7.78561"/>
<path d="M728.81 -129.785C672.411 -110.591 561.178 -26.988 567.434 153.867C575.254 379.936 745.872 521.407 788.526 734.68C820.009 892.091 815.541 1286.34 623.596 1451.99" stroke="#BCA4C3" stroke-width="7.78561"/>
<path d="M639.742 -141.891C583.343 -122.697 472.109 -39.0941 478.365 141.761C486.185 367.83 656.804 509.301 699.458 722.574C730.94 879.985 726.473 1274.24 534.527 1439.88" stroke="#BCA4C3" stroke-width="7.78561"/>
<path d="M552.976 -165.378C496.577 -146.184 385.344 -62.5808 391.6 118.274C399.42 344.343 570.038 485.814 612.692 699.087C644.175 856.498 639.707 1250.75 447.762 1416.39" stroke="#BCA4C3" stroke-width="7.78561"/>
<path d="M455.734 -207.82C399.336 -188.625 288.102 -105.022 294.358 75.833C302.178 301.902 472.796 443.373 515.451 656.645C546.933 814.057 542.465 1208.31 350.52 1373.95" stroke="#BCA4C3" stroke-width="7.78561"/>
<path d="M372.419 -241.559C316.02 -222.365 204.787 -138.762 211.043 42.0935C218.863 268.162 389.481 409.633 432.135 622.906C463.618 780.317 459.15 1174.57 267.205 1340.21" stroke="#BCA4C3" stroke-width="7.78561"/>
<path d="M286.603 -268.3C230.204 -249.105 118.97 -165.503 125.226 15.3526C133.046 241.422 303.664 382.892 346.319 596.165C377.801 753.576 373.333 1147.83 181.388 1313.47" stroke="#BCA4C3" stroke-width="7.78561"/>
<path d="M198.873 -287.877C142.474 -268.682 31.2404 -185.079 37.4964 -4.22426C45.3163 221.845 215.934 363.316 258.589 576.588C290.071 733.999 285.604 1128.25 93.6582 1293.9" stroke="#BCA4C3" stroke-width="7.78561"/>
<path d="M109.846 -300.293C53.4475 -281.098 -57.786 -197.495 -51.53 -16.6401C-43.71 209.429 126.908 350.9 169.563 564.172C201.045 721.583 196.577 1115.84 4.63181 1281.48" stroke="#BCA4C3" stroke-width="7.78561"/>
<path d="M20.1226 -305.703C-36.2761 -286.508 -147.51 -202.906 -141.254 -22.0504C-133.434 204.019 37.1845 345.489 79.839 558.762C111.321 716.173 106.854 1110.43 -85.0918 1276.07" stroke="#BCA4C3" stroke-width="7.78561"/>
<path d="M-69.7553 -304.386C-126.154 -285.191 -237.388 -201.588 -231.132 -20.7332C-223.312 205.336 -52.6935 346.807 -10.0389 560.079C21.4433 717.49 16.9756 1111.74 -174.97 1277.39" stroke="#BCA4C3" stroke-width="7.78561"/>
</svg>
