<svg width="156" height="185" viewBox="0 0 156 185" fill="none" xmlns="http://www.w3.org/2000/svg">
<path d="M138.906 58.084C139.96 52.4792 139.333 46.6884 137.105 41.4378C134.877 36.1872 131.146 31.7105 126.381 28.5692C121.616 25.4279 116.028 23.7618 110.319 23.7797C104.609 23.7977 99.032 25.499 94.2867 28.6702C90.8402 20.3022 84.5929 13.3882 76.6112 9.1084C68.6294 4.82862 59.408 3.44834 50.5209 5.20317C41.6337 6.95799 33.6318 11.7391 27.8808 18.7305C22.1299 25.7219 18.9864 34.4902 18.987 43.5387C18.987 44.0232 18.987 44.5001 18.987 44.977C13.3686 46.5764 8.47149 50.0565 5.1169 54.8339C1.76231 59.6114 0.154189 65.3955 0.562214 71.2166C0.970238 77.0376 3.36959 82.5416 7.35793 86.8055C11.3463 91.0694 16.6811 93.8341 22.4679 94.6358V94.9051H137.658C142.338 94.7429 146.782 92.8125 150.092 89.5037C153.402 86.195 155.331 81.7547 155.489 77.0801C155.648 72.4055 154.024 67.8451 150.946 64.3204C147.867 60.7957 143.564 58.5695 138.906 58.0917V58.084Z" fill="#263238" stroke="#263238" stroke-linecap="round" stroke-linejoin="round"/>
<path d="M138.906 54.6228C139.96 49.0179 139.333 43.2271 137.105 37.9765C134.877 32.7259 131.146 28.2493 126.381 25.108C121.616 21.9667 116.028 20.3005 110.319 20.3185C104.609 20.3365 99.032 22.0377 94.2867 25.209C90.8405 16.8415 84.5938 9.92792 76.6129 5.64806C68.6319 1.3682 59.4113 -0.0126425 50.5246 1.74118C41.638 3.495 33.636 8.27479 27.8845 15.2648C22.1329 22.2549 18.9882 31.0219 18.987 40.0697C18.987 40.5543 18.987 41.0312 18.987 41.5081C13.3686 43.1074 8.47149 46.5876 5.1169 51.365C1.76231 56.1424 0.154189 61.9266 0.562214 67.7477C0.970238 73.5687 3.36959 79.0726 7.35793 83.3366C11.3463 87.6005 16.6811 90.3651 22.4679 91.1669V91.4361H137.658C142.338 91.274 146.782 89.3435 150.092 86.0348C153.402 82.7261 155.331 78.2858 155.489 73.6112C155.648 68.9366 154.024 64.3762 150.946 60.8515C147.867 57.3268 143.564 55.1006 138.906 54.6228Z" fill="#9106F1" stroke="#263238" stroke-linecap="round" stroke-linejoin="round"/>
<path d="M95.7988 67.5735L75.6615 41.8901L55.5317 67.5735H63.4063V106.242H87.9243V67.5735H95.7988Z" fill="white" stroke="#263238" stroke-linecap="round" stroke-linejoin="round"/>
<path d="M115.261 101.549H32.7136V184H115.261V101.549Z" fill="white" stroke="#263238" stroke-linecap="round" stroke-linejoin="round"/>
<path d="M111.235 104.901H36.7405V179.978H111.235V104.901Z" fill="#263238" stroke="#263238" stroke-linecap="round" stroke-linejoin="round"/>
<path d="M73.5 134.071C77.4449 134.071 80.6429 130.873 80.6429 126.929C80.6429 122.984 77.4449 119.786 73.5 119.786C69.5551 119.786 66.3572 122.984 66.3572 126.929C66.3572 130.873 69.5551 134.071 73.5 134.071Z" stroke="#FCFCFD" stroke-width="2" stroke-linecap="round" stroke-linejoin="round"/>
<path d="M86 146.571C86 143.256 84.683 140.077 82.3388 137.733C79.9946 135.388 76.8152 134.071 73.5 134.071C70.1848 134.071 67.0054 135.388 64.6612 137.733C62.317 140.077 61 143.256 61 146.571V151.929H66.3571L68.1429 166.214H78.8571L80.6429 151.929H86V146.571Z" stroke="#FCFCFD" stroke-width="2" stroke-linecap="round" stroke-linejoin="round"/>
</svg>
